<svg width="500" height="500" viewBox="0 0 500 500" fill="none" xmlns="http://www.w3.org/2000/svg">
<path d="M331.13 339.21C328.16 345.139 324.962 350.608 320.503 354.927C311.211 363.928 298.806 362.562 290.857 351.926C285.1 344.223 282.832 334.966 281.565 325.218C279.633 310.352 279.915 295.351 279.849 280.371C279.793 267.747 279.753 255.117 279.404 242.501C279.073 230.549 278.624 218.583 277.724 206.676C276.696 193.073 275.402 179.462 271.405 166.482C270.198 162.564 268.573 158.875 266.639 155.389C264.02 150.67 260.341 150.263 256.94 154.298C253.825 157.995 251.781 162.543 249.798 167.112C247.94 171.391 246.394 175.835 245.074 180.391C244.693 181.703 244.31 183.694 242.801 183.308C241.434 182.96 241.692 181.021 241.823 179.705C243.475 163.065 247.549 147.396 255.51 133.353C257.046 130.643 258.896 128.183 261.385 126.576C265.49 123.924 269.06 124.611 272.19 128.699C275.617 133.174 277.396 138.691 278.778 144.324C281.272 154.497 282.459 164.996 283.869 175.431C285.225 185.469 286.317 195.547 287.032 205.676C287.393 210.784 287.797 215.895 287.937 221.014C288.205 230.862 288.242 240.719 288.479 250.569C288.851 266.023 289.003 281.502 290.58 296.873C291.511 305.948 293.148 314.86 297.103 322.908C299.302 327.382 302.22 331.076 306.396 332.956C313.207 336.021 319.849 333.404 324.307 326.287C328.134 320.179 330.423 313.192 332.857 306.272C333.809 303.568 334.795 300.868 335.934 298.27C336.951 295.949 338.179 293.757 340.444 292.791C341.461 292.357 341.532 291.25 341.679 290.187C342.767 282.304 345.242 275.14 349.863 269.195C358.62 257.93 372.961 258.954 380.205 271.594C385.227 280.358 388.669 290.022 390.524 300.44C391.241 304.47 390.299 308.019 388.772 311.47C386.549 316.492 383.632 320.917 380.269 324.95C378.9 326.591 377.39 327.194 375.403 326.697C364.337 323.93 353.245 321.309 342.185 318.511C340.253 318.023 339.262 318.594 338.516 320.716C336.32 326.958 334.055 333.171 331.13 339.21ZM363.795 288.968C358.784 286.091 351.143 288.971 349.478 293.098C349.291 293.563 349.583 294.056 350.059 294.215C356.026 296.202 362.042 298.046 368.486 299.773C369.221 299.97 369.895 299.302 369.693 298.568C368.553 294.416 367.16 291.098 363.795 288.968Z" fill="#156BB3"/>
<path d="M162.807 344.21C177.303 342.084 191.26 338.276 204.712 332.09C218.177 325.898 231.027 318.403 241.791 306.738C244.378 303.936 246.893 300.953 247.69 296.637C248.45 292.521 247.275 288.712 246.185 284.968C243.841 276.924 240.278 269.541 236.863 262.088C233.955 255.744 231.478 249.173 230.759 241.964C229.627 230.63 232.524 220.91 239.829 213.211C240.544 212.458 241.372 211.823 242.213 211.274C243.026 210.743 243.934 209.777 244.868 210.618C245.688 211.358 245.221 212.579 245.107 213.603C244.575 218.402 244.493 223.195 245.578 227.901C246.998 234.056 250.582 236.307 255.699 234.329C256.876 233.874 257.983 233.167 259.155 232.688C259.87 232.396 260.723 231.364 261.378 232.462C262.017 233.53 261.207 234.461 260.623 235.243C257.947 238.826 254.925 241.886 251.146 243.774C250.85 243.922 250.563 244.094 250.242 244.289C249.826 244.542 249.645 245.056 249.826 245.507C251.115 248.707 252.788 251.55 254.246 254.528C257.712 261.613 260.783 268.893 261.855 277.079C263.032 286.067 261.322 294.578 258.363 302.785C253.612 315.96 245.825 326.259 236.206 334.771C223.722 345.818 209.634 353.028 194.899 358.645C179.155 364.645 163.01 368.318 146.449 367.953C115.909 367.28 89.811 354.169 68.8529 327.676C65.0291 322.843 61.6622 317.533 60.3197 310.871C60.029 309.429 59.8923 307.998 60.0998 306.597C60.1561 306.218 60.5213 305.831 60.8074 306.087C60.9047 306.174 60.9697 306.293 61.0236 306.413C65.6386 316.618 73.0549 323.264 81.4564 328.593C95.5195 337.513 110.653 342.248 126.439 344.431C136.985 345.89 147.537 345.611 158.096 344.822C159.61 344.708 161.115 344.448 162.807 344.21Z" fill="#156BB3"/>
<path d="M356.095 368.141C372.021 363.044 387.243 356.558 400.411 344.729C411.207 335.03 419.868 323.301 424.992 308.264C427.863 299.841 428.454 291.052 428.089 282.109C427.5 267.694 424.652 253.789 421.072 240.075C419.367 233.541 417.35 227.122 415.567 220.616C415.098 218.905 414.427 218.563 413 219.027C405.6 221.431 398.5 220.173 391.656 216.333C390.943 215.933 389.872 215.647 390.092 214.413C390.304 213.22 391.355 213.266 392.164 213.332C393.952 213.478 395.733 213.733 397.515 213.964C401.99 214.546 406.291 213.751 410.526 211.975C412.404 211.187 412.72 210.074 412.125 207.946C408.967 196.658 405.904 185.332 402.796 174.024C400.696 166.384 399.178 158.649 399.764 150.524C400.365 142.193 402.516 134.441 406.002 127.195C406.831 125.471 408.197 124.7 409.877 125.229C411.599 125.772 411.617 127.472 411.644 129.16C411.695 132.408 411.448 135.648 411.918 138.905C412.496 142.901 414.387 145.752 417.062 147.987C418.58 149.256 420.205 150.358 421.831 151.433C429.392 156.434 432.611 164.625 433.117 174.246C433.745 186.185 431.089 197.168 424.411 206.484C423.505 207.747 423.375 208.879 423.772 210.47C427.669 226.083 431.225 241.809 433.456 257.882C435.971 276.002 435.485 294.025 431.475 311.854C429.005 322.839 425.769 333.442 420.953 343.339C413.393 358.871 402.029 367.713 387.117 370.591C378.386 372.276 369.595 373.169 360.794 374.095C354.244 374.783 347.698 375.059 341.131 374.989C340.315 374.981 339.499 374.974 338.578 374.6C337.86 374.309 337.997 373.354 338.729 373.101C344.617 371.066 350.386 370.056 356.095 368.141ZM421.053 200.707C422.046 202.61 422.378 200.767 422.607 200.195C425.04 194.124 425.004 188.081 421.94 182.345C420.749 180.117 418.932 178.872 416.669 178.024C415.931 177.748 415.233 178.454 415.444 179.214C417.472 186.501 418.512 193.728 421.053 200.707Z" fill="#156BB3"/>
<path d="M172.555 268.209C170.68 270.935 168.909 273.536 167.116 276.117C165.365 278.638 164.195 278.905 161.771 277.158C152.281 270.317 143.175 262.795 134.011 255.376C130.825 252.796 127.657 250.182 124.524 247.512C122.571 245.848 122.369 244.452 123.775 242.154C130.603 231 137.467 219.877 144.314 208.739C145.246 207.224 146.165 205.698 147.077 204.165C149.076 200.805 150.109 200.648 152.972 203.15C159.295 208.674 165.594 214.238 171.984 219.654C177.022 223.924 182.487 227.484 187.111 232.449C190.263 235.833 190.829 238.877 188.42 242.973C183.387 251.532 178.077 259.857 172.555 268.209Z" fill="#EA944C"/>
<path d="M362.354 187.789C358.609 194.268 353.477 198.658 348.157 202.807C341.942 207.653 335.479 212.056 329.705 217.682C323.979 223.261 319.798 230.099 317.022 238.172C315.7 242.018 314.46 245.904 313.13 249.746C312.866 250.51 312.7 251.387 312.184 252.046C311.824 252.504 311.159 252.253 311.052 251.68C310.719 249.907 311.233 248.181 311.488 246.542C313.065 236.432 315.229 226.549 319.521 217.446C323.102 209.852 328.313 204.141 334.078 198.994C341.739 192.156 350.059 186.453 357.837 179.816C359.695 178.229 361.367 176.454 362.635 174.147C363.343 172.857 364.264 171.718 365.458 170.972C366.315 170.435 367.198 170.338 368.005 171.026C368.853 171.748 368.852 172.782 368.615 173.889C367.861 177.425 366.224 180.452 364.655 183.517C363.941 184.91 363.177 186.267 362.354 187.789Z" fill="#EA944C"/>
<path d="M314.582 132.151C318.864 137.236 320.623 144.387 319.364 151.222C319.285 151.647 318.868 152.038 318.541 151.756C318.188 151.452 318.128 150.831 318.016 150.351C316.298 143.019 313.049 136.853 308.061 131.99C307.85 131.785 307.668 131.533 307.494 131.282C306.821 130.315 306.103 129.223 306.881 128.024C307.738 126.704 308.84 127.265 309.836 127.975C311.49 129.156 313.031 130.515 314.582 132.151Z" fill="#EA944C"/>
</svg>
