<svg width="1200" height="630" viewBox="0 0 1200 630" fill="none" xmlns="http://www.w3.org/2000/svg">
<rect width="1200" height="630" fill="white"/>
<path d="M736.569 486.284C730.868 497.666 724.727 508.168 716.166 516.461C698.325 533.742 674.508 531.119 659.246 510.698C648.192 495.908 643.837 478.135 641.405 459.418C637.695 430.875 638.237 402.073 638.11 373.313C638.003 349.074 637.926 324.825 637.255 300.603C636.62 277.654 635.759 254.679 634.031 231.818C632.057 205.7 629.573 179.568 621.898 154.646C619.581 147.122 616.461 140.041 612.747 133.347C607.718 124.286 600.654 123.506 594.125 131.253C588.144 138.35 584.219 147.083 580.411 155.854C576.844 164.07 573.877 172.603 571.341 181.351C570.611 183.87 569.876 187.692 566.977 186.952C564.353 186.282 564.849 182.56 565.1 180.033C568.272 148.085 576.095 118.001 591.379 91.0371C594.328 85.8344 597.881 81.1122 602.66 78.025C610.541 72.9345 617.395 74.2525 623.405 82.1019C629.984 90.6945 633.401 101.287 636.053 112.102C640.843 131.634 643.121 151.792 645.828 171.828C648.432 191.101 650.528 210.45 651.902 229.899C652.594 239.705 653.371 249.518 653.639 259.346C654.154 278.255 654.224 297.18 654.68 316.092C655.394 345.765 655.685 375.484 658.713 404.995C660.501 422.42 663.644 439.532 671.238 454.983C675.461 463.573 681.062 470.665 689.081 474.275C702.157 480.161 714.91 475.136 723.47 461.472C730.817 449.743 735.211 436.329 739.886 423.043C741.714 417.85 743.606 412.668 745.793 407.678C747.746 403.221 750.103 399.013 754.453 397.158C756.406 396.326 756.541 394.201 756.823 392.159C758.913 377.024 763.664 363.269 772.537 351.855C789.351 330.226 816.885 332.192 830.793 356.461C840.436 373.288 847.044 391.843 850.606 411.846C851.984 419.583 850.174 426.397 847.242 433.023C842.974 442.664 837.374 451.161 830.916 458.905C828.288 462.055 825.388 463.213 821.574 462.259C800.327 456.945 779.03 451.913 757.795 446.542C754.087 445.604 752.184 446.701 750.751 450.774C746.534 462.76 742.186 474.688 736.569 486.284ZM799.287 389.818C789.36 384.12 774.059 390.186 771.53 398.509C771.384 398.989 771.673 399.478 772.149 399.637C784.319 403.704 796.58 407.461 809.798 410.965C810.534 411.16 811.207 410.492 811.014 409.756C808.74 401.081 806.15 394.163 799.287 389.818Z" fill="#156BB3"/>
<path d="M413.39 495.884C441.221 491.801 468.02 484.491 493.847 472.613C519.699 460.724 544.371 446.334 565.039 423.938C570.005 418.557 574.834 412.831 576.365 404.543C577.824 396.64 575.568 389.326 573.474 382.139C568.974 366.694 562.134 352.518 555.576 338.209C549.994 326.029 545.238 313.413 543.856 299.572C541.685 277.81 547.246 259.147 561.271 244.366C562.644 242.919 564.234 241.7 565.849 240.646C567.411 239.626 569.154 237.772 570.946 239.387C572.522 240.808 571.624 243.153 571.406 245.119C570.384 254.332 570.226 263.534 572.31 272.571C575.036 284.388 581.916 288.709 591.742 284.912C594.003 284.038 596.127 282.681 598.377 281.761C599.75 281.201 601.387 279.219 602.646 281.327C603.872 283.378 602.317 285.164 601.195 286.666C596.057 293.545 590.256 299.42 583 303.047C582.237 303.428 581.503 303.892 580.603 304.437C580.187 304.689 580.005 305.201 580.182 305.654C582.69 312.093 586.045 317.753 588.951 323.694C595.607 337.297 601.504 351.275 603.562 366.991C605.822 384.249 602.538 400.591 596.857 416.347C587.735 441.643 572.784 461.417 554.314 477.76C530.345 498.97 503.298 512.814 475.005 523.598C444.778 535.119 413.78 542.17 381.982 541.47C323.345 540.178 273.237 515.004 232.998 464.138C225.656 454.858 219.191 444.664 216.614 431.872C216.016 428.907 215.758 425.969 216.286 423.097C216.356 422.72 216.656 422.384 217.035 422.444C217.546 422.526 217.787 422.919 217.965 423.312C226.826 442.907 241.065 455.666 257.196 465.899C284.197 483.026 313.253 492.116 343.562 496.308C363.812 499.11 384.07 498.572 404.345 497.057C407.251 496.84 410.141 496.34 413.39 495.884Z" fill="#156BB3"/>
<path d="M784.503 541.83C815.081 532.044 844.307 519.592 869.588 496.88C890.317 478.258 906.947 455.738 916.785 426.868C922.297 410.694 923.432 393.82 922.731 376.648C921.6 348.973 916.132 322.276 909.259 295.943C905.985 283.399 902.112 271.074 898.688 258.582C897.787 255.297 896.5 254.641 893.76 255.531C879.552 260.148 865.92 257.733 852.779 250.359C851.411 249.591 849.355 249.043 849.776 246.673C850.183 244.382 852.202 244.471 853.756 244.598C857.187 244.878 860.607 245.367 864.028 245.812C872.621 246.928 880.879 245.402 889.01 241.992C892.616 240.479 893.223 238.343 892.08 234.257C886.016 212.583 880.135 190.838 874.168 169.127C870.136 154.458 867.221 139.606 868.347 124.006C869.501 108.011 873.631 93.1259 880.324 79.2138C881.916 75.9046 884.537 74.4237 887.764 75.4402C891.07 76.4817 891.104 79.7459 891.156 82.9872C891.254 89.2229 890.779 95.444 891.683 101.698C892.791 109.371 896.422 114.843 901.558 119.135C904.473 121.571 907.594 123.687 910.715 125.751C925.233 135.352 931.414 151.079 932.385 169.552C933.59 192.474 928.49 213.563 915.669 231.449C913.93 233.875 913.68 236.047 914.443 239.102C921.925 269.078 928.753 299.274 933.035 330.134C937.863 364.924 936.931 399.529 929.232 433.759C924.489 454.85 918.277 475.209 909.029 494.211C894.514 524.032 872.695 541.009 844.064 546.535C827.301 549.771 810.421 551.485 793.525 553.262C780.948 554.584 768.38 555.113 755.772 554.98C753.792 554.959 751.813 554.942 749.428 553.508C748.764 553.109 748.908 552.156 749.637 551.892C761.469 547.617 773.048 545.672 784.503 541.83ZM909.221 220.358C911.128 224.011 911.765 220.474 912.206 219.373C916.877 207.719 916.807 196.116 910.924 185.103C908.368 180.318 904.304 177.894 899.224 176.258C898.474 176.016 897.778 176.723 897.997 177.481C902.198 192.017 904.156 206.445 909.221 220.358Z" fill="#156BB3"/>
<path d="M432.105 349.96C428.506 355.196 425.105 360.19 421.663 365.144C418.3 369.986 416.054 370.498 411.4 367.143C393.18 354.009 375.695 339.567 358.102 325.322C351.984 320.368 345.901 315.35 339.886 310.224C336.137 307.028 335.748 304.347 338.448 299.936C351.557 278.52 364.736 257.163 377.884 235.78C379.673 232.87 381.437 229.939 383.188 226.997C387.027 220.546 389.01 220.245 394.506 225.048C406.646 235.655 418.741 246.337 431.009 256.735C440.682 264.935 451.174 271.77 460.054 281.303C466.105 287.799 467.191 293.644 462.566 301.509C452.904 317.942 442.707 333.925 432.105 349.96Z" fill="#EA944C"/>
<path d="M796.52 195.554C789.329 207.995 779.476 216.424 769.26 224.39C757.328 233.694 744.92 242.148 733.833 252.95C722.839 263.661 714.812 276.79 709.483 292.289C706.943 299.674 704.563 307.135 702.01 314.513C701.4 316.276 701.063 318.354 699.5 319.638C699.049 320.008 698.404 319.754 698.245 319.193C697.189 315.449 698.32 311.804 698.857 308.36C701.885 288.95 706.039 269.974 714.281 252.495C721.156 237.915 731.16 226.95 742.23 217.069C756.938 203.939 772.913 192.99 787.846 180.246C791.415 177.2 794.625 173.792 797.058 169.363C798.419 166.885 800.187 164.699 802.478 163.266C804.125 162.236 805.819 162.049 807.369 163.369C808.997 164.756 808.995 166.742 808.541 168.868C807.093 175.656 803.95 181.467 800.937 187.352C799.567 190.027 798.1 192.633 796.52 195.554Z" fill="#EA944C"/>
<path d="M704.797 88.729C713.156 98.6551 716.508 112.68 713.852 126.001C713.768 126.424 713.404 126.777 712.985 126.672C711.769 126.37 711.657 124.815 711.39 123.674C708.091 109.596 701.854 97.7585 692.276 88.4209C691.872 88.0268 691.523 87.543 691.188 87.0619C689.897 85.2041 688.518 83.1072 690.011 80.8069C691.657 78.2714 693.773 79.3483 695.685 80.7128C698.86 82.9786 701.82 85.5891 704.797 88.729Z" fill="#EA944C"/>
</svg>
